
<svg version="1.1" height="30pt" viewBox="130 80 400 400" xmlns="http://www.w3.org/2000/svg" xmlns:xlink="http://www.w3.org/1999/xlink">
 <g>
  <path d="m302.33 290.3c0 12.516-10.141 22.676-22.656 22.676s-22.668-10.152-22.668-22.676c0-12.516 10.152-22.668 22.668-22.668 12.516 0.007813 22.656 10.152 22.656 22.668zm118.01-22.66c-12.523 0-22.656 10.152-22.656 22.668 0 12.516 10.137 22.676 22.656 22.676 12.523 0 22.668-10.152 22.668-22.676 0-12.523-10.145-22.668-22.668-22.668zm52.68 73.254c12.789-19.762 27.289-42.164 49.051-65.547 3.1914-3.4336 3.9102-8.4883 1.7969-12.672l-19.156-37.984c7.3477-17.305 23.27-62.293-1.9922-77.875-5.2812-3.2578-11.754-4.9102-19.234-4.9102-20.66 0-45.887 12.684-57.605 19.281-11.641-6.9141-38.305-19.75-75.867-19.75-37.566 0-64.227 12.836-75.867 19.75-11.723-6.5977-36.949-19.281-57.605-19.281-7.4805 0-13.957 1.6523-19.234 4.9102-25.266 15.586-9.3477 60.57-2 77.875l-19.156 37.984c-2.1094 4.1875-1.3945 9.2383 1.7969 12.672 21.766 23.387 36.266 45.785 49.051 65.547 28.086 43.402 50.273 77.688 123.01 77.688s94.922-34.285 123.02-77.688zm-255.33-110.86c1.5391-3.0586 1.5977-6.6602 0.15625-9.7734-9.9844-21.5-16-49.945-8.7852-54.395 1.668-1.0312 4.2578-1.5742 7.4688-1.5742 16.891 0 43.242 14.113 51.973 19.551 3.9258 2.4414 8.9805 2.1992 12.684-0.57031 0.25781-0.19531 26.441-19.453 68.82-19.453 42.375 0 68.555 19.258 68.777 19.422 3.707 2.832 8.7812 3.0703 12.73 0.59375 8.707-5.4375 35.012-19.551 51.969-19.551 3.2188 0 5.8008 0.54297 7.4766 1.5742 7.2109 4.4453 1.1992 32.895-8.7852 54.395-1.4375 3.1094-1.3906 6.707 0.15625 9.7734l18.078 35.84c-20.176 22.652-33.93 43.91-46.188 62.844-27.23 42.07-43.668 67.465-104.21 67.465s-76.984-25.391-104.21-67.457c-12.254-18.93-26.012-40.188-46.188-62.844zm159.15 95.746-53.664-0.003906 26.828 26.832zm-24.855 28.812 26.828-26.828c0.80078-0.80078 1.043-2.0039 0.60547-3.0508-0.42969-1.0469-1.457-1.7305-2.5859-1.7305l-53.664-0.003906c-1.1328 0-2.1562 0.68359-2.5859 1.7305-0.4375 1.0469-0.19531 2.25 0.60547 3.0508l26.836 26.836c0.52734 0.52734 1.2383 0.81641 1.9805 0.81641 0.74609-0.003906 1.457-0.29687 1.9805-0.82031zm18.09-26.016-20.07 20.074-20.07-20.074z"/>
  <use x="70" y="644" xlink:href="#u"/>
  <use x="90.550781" y="644" xlink:href="#b"/>
  <use x="104.359375" y="644" xlink:href="#a"/>
  <use x="123.347656" y="644" xlink:href="#f"/>
  <use x="142.242188" y="644" xlink:href="#d"/>
  <use x="155.628906" y="644" xlink:href="#a"/>
  <use x="174.617188" y="644" xlink:href="#e"/>
  <use x="204.410156" y="644" xlink:href="#n"/>
  <use x="224.453125" y="644" xlink:href="#m"/>
  <use x="252.453125" y="644" xlink:href="#l"/>
  <use x="274.011719" y="644" xlink:href="#k"/>
  <use x="283.609375" y="644" xlink:href="#j"/>
  <use x="300.207031" y="644" xlink:href="#i"/>
  <use x="320.140625" y="644" xlink:href="#f"/>
  <use x="339.035156" y="644" xlink:href="#b"/>
  <use x="352.84375" y="644" xlink:href="#e"/>
  <use x="382.632812" y="644" xlink:href="#h"/>
  <use x="406.070312" y="644" xlink:href="#k"/>
  <use x="415.664062" y="644" xlink:href="#t"/>
  <use x="433.726562" y="644" xlink:href="#c"/>
  <use x="452.960937" y="644" xlink:href="#g"/>
  <use x="70" y="672" xlink:href="#s"/>
  <use x="82.183594" y="672" xlink:href="#b"/>
  <use x="95.992188" y="672" xlink:href="#c"/>
  <use x="115.226562" y="672" xlink:href="#r"/>
  <use x="154.152344" y="672" xlink:href="#d"/>
  <use x="167.535156" y="672" xlink:href="#i"/>
  <use x="187.46875" y="672" xlink:href="#a"/>
  <use x="216.207031" y="672" xlink:href="#h"/>
  <use x="239.640625" y="672" xlink:href="#c"/>
  <use x="258.878906" y="672" xlink:href="#q"/>
  <use x="278.8125" y="672" xlink:href="#g"/>
  <use x="308.492188" y="672" xlink:href="#p"/>
  <use x="329.015625" y="672" xlink:href="#b"/>
  <use x="342.820312" y="672" xlink:href="#c"/>
  <use x="362.058594" y="672" xlink:href="#o"/>
  <use x="371.65625" y="672" xlink:href="#a"/>
  <use x="390.648438" y="672" xlink:href="#j"/>
  <use x="407.242188" y="672" xlink:href="#d"/>
 </g>
</svg>
