<svg width="19" height="17" viewBox="0 0 19 17" fill="none" xmlns="http://www.w3.org/2000/svg">
<path fill-rule="evenodd" clip-rule="evenodd" d="M0 2.2984C0 1.02903 1.06332 0 2.375 0H16.625C17.9367 0 19 1.02903 19 2.2984V11.492C19 12.7614 17.9367 13.7904 16.625 13.7904H13.3084C13.151 13.7904 13 13.8509 12.8886 13.9587L9.91984 16.8317C9.68797 17.0561 9.31203 17.0561 9.08016 16.8317L6.11141 13.9587C6.00005 13.8509 5.84904 13.7904 5.69156 13.7904H2.375C1.06332 13.7904 0 12.7614 0 11.492V2.2984ZM3.5625 4.5968C3.5625 3.96213 4.09415 3.4476 4.75 3.4476H14.25C14.9058 3.4476 15.4375 3.96213 15.4375 4.5968C15.4375 5.23148 14.9058 5.746 14.25 5.746H4.75C4.09415 5.746 3.5625 5.23148 3.5625 4.5968ZM4.75 8.0444C4.09415 8.0444 3.5625 8.55893 3.5625 9.1936C3.5625 9.82828 4.09415 10.3428 4.75 10.3428H8.3125C8.96835 10.3428 9.5 9.82828 9.5 9.1936C9.5 8.55893 8.96835 8.0444 8.3125 8.0444H4.75Z" fill="#C0A4FA"/>
</svg>
