<svg width="18" height="18" viewBox="0 0 18 18" fill="none" xmlns="http://www.w3.org/2000/svg">
<path d="M1.2273 16.0209H4.09092V9.06628L0 5.99805V14.7937C0 15.4717 0.549211 16.021 1.2273 16.021V16.0209Z" fill="#4285F4"/>
<path d="M13.9062 16.0208H16.7699C17.4479 16.0208 17.9971 15.4716 17.9971 14.7935V5.99805L13.9062 9.06624V16.0208Z" fill="#34A853"/>
<path d="M13.9062 3.74812V9.0662L17.9971 5.99807V4.36176C17.9971 2.84508 16.2657 1.97885 15.0517 2.88906L13.9062 3.74812Z" fill="#FBBC04"/>
<path fill-rule="evenodd" clip-rule="evenodd" d="M4.09375 9.06624V3.74805L9.00283 7.42989L13.9119 3.74805V9.06624L9.00283 12.748L4.09375 9.06624Z" fill="#EA4335"/>
<path d="M0 4.36177V5.99809L4.09092 9.06624V3.74813L2.94546 2.88906C1.73145 1.97885 0 2.84508 0 4.3617V4.36177Z" fill="#C5221F"/>
</svg>
