<?xml version="1.0" encoding="UTF-8"?>
<svg width="22pt" height="22pt" version="1.1" viewBox="0 0 700 600" xmlns="http://www.w3.org/2000/svg">
 <path fill="currentColor" d="m151.67 140v128.33h163.33v-128.33c0-6.4414 5.2227-11.668 11.668-11.668 6.4414 0 11.664 5.2266 11.664 11.668v280c0 6.4414-5.2227 11.668-11.664 11.668-6.4453 0-11.668-5.2266-11.668-11.668v-128.33h-163.33v128.33c0 6.4414-5.2266 11.668-11.668 11.668s-11.668-5.2266-11.668-11.668v-280c0-6.4414 5.2266-11.668 11.668-11.668s11.668 5.2266 11.668 11.668zm315 268.33c-6.4453 0-11.668 5.2266-11.668 11.668s5.2227 11.668 11.668 11.668h93.332c6.4414 0 11.668-5.2266 11.668-11.668s-5.2266-11.668-11.668-11.668h-35v-268.33c0-3.0938-1.2305-6.0625-3.418-8.25s-5.1562-3.418-8.25-3.418h-46.664c-6.4453 0-11.668 5.2266-11.668 11.668s5.2227 11.668 11.668 11.668h35v256.67z"/>
</svg>
