<?xml version="1.0" encoding="UTF-8"?>
<svg width="24pt" height="24pt" version="1.1" viewBox="0 0 700 700" xmlns="http://www.w3.org/2000/svg">
 <path fill="currentColor" d="m105 420v-280c0-6.4414 5.2227-11.668 11.668-11.668 6.4414 0 11.664 5.2266 11.664 11.668v128.33h163.33l0.003907-128.33c0-6.4414 5.2227-11.668 11.664-11.668 6.4453 0 11.668 5.2266 11.668 11.668v280c0 6.4414-5.2227 11.668-11.668 11.668-6.4414 0-11.664-5.2266-11.664-11.668v-128.33h-163.33l-0.003907 128.33c0 6.4414-5.2227 11.668-11.664 11.668-6.4453 0-11.668-5.2266-11.668-11.668zm490-186.67c0-37.512-20.012-72.176-52.5-90.93-32.488-18.758-72.512-18.758-105 0-32.488 18.754-52.5 53.418-52.5 90.93 0 6.4453 5.2227 11.668 11.668 11.668 6.4414 0 11.664-5.2227 11.664-11.668 0.003907-28.301 14.66-54.582 38.734-69.461 24.078-14.875 54.141-16.23 79.453-3.5742s42.27 37.516 44.816 65.703c2.5469 28.188-9.6836 55.68-32.32 72.668l-149.33 112h-0.003906c-4.0156 3.0117-5.6562 8.2578-4.0664 13.02 1.5859 4.7656 6.0469 7.9805 11.066 7.9805h186.67c6.4414 0 11.668-5.2266 11.668-11.668s-5.2266-11.668-11.668-11.668h-151.68l121.33-91c26.375-19.883 41.918-50.969 42-84z"/>
</svg>
