<?xml version="1.0" encoding="UTF-8"?>
<svg width="24pt" height="24pt" version="1.1" viewBox="0 0 700 700" xmlns="http://www.w3.org/2000/svg">
 <path fill="currentColor" d="m105 420v-280c0-6.4414 5.2227-11.668 11.668-11.668 6.4414 0 11.664 5.2266 11.664 11.668v128.33h163.33l0.003907-128.33c0-6.4414 5.2227-11.668 11.664-11.668 6.4453 0 11.668 5.2266 11.668 11.668v280c0 6.4414-5.2227 11.668-11.668 11.668-6.4414 0-11.664-5.2266-11.664-11.668v-128.33h-163.33l-0.003907 128.33c0 6.4414-5.2227 11.668-11.664 11.668-6.4453 0-11.668-5.2266-11.668-11.668zm404.37-11.668h-42.699c-15.469-0.011719-30.297-6.1641-41.234-17.102-10.938-10.934-17.086-25.766-17.102-41.23 0-6.4414-5.2227-11.668-11.664-11.668-6.4453 0-11.668 5.2266-11.668 11.668 0.027344 21.652 8.6367 42.41 23.949 57.719 15.309 15.309 36.066 23.922 57.719 23.949h42.699c21.371 0.26562 42.055-7.5508 57.914-21.879 15.855-14.332 25.715-34.125 27.605-55.414 0.96094-14.918-2.2969-29.801-9.3984-42.953-7.1016-13.152-17.762-24.043-30.758-31.422 12.996-7.3789 23.656-18.27 30.758-31.422 7.1016-13.152 10.359-28.035 9.3984-42.953-1.8906-21.289-11.75-41.082-27.605-55.414-15.859-14.328-36.543-22.145-57.914-21.879h-42.699c-21.652 0.027344-42.41 8.6406-57.719 23.949-15.312 15.309-23.922 36.066-23.949 57.719 0 6.4414 5.2227 11.668 11.668 11.668 6.4414 0 11.664-5.2266 11.664-11.668 0.015625-15.465 6.1641-30.297 17.102-41.23 10.938-10.938 25.766-17.09 41.234-17.102h42.699c15.418-0.33203 30.391 5.168 41.93 15.398 11.535 10.234 18.785 24.441 20.301 39.789 0.85156 15.992-4.9023 31.637-15.922 43.262-11.016 11.625-26.324 18.211-42.344 18.215h-23.332c-6.4414 0-11.668 5.2266-11.668 11.668s5.2266 11.668 11.668 11.668h23.332c16.02 0.003906 31.328 6.5898 42.344 18.215 11.02 11.625 16.773 27.27 15.922 43.262-1.5156 15.348-8.7656 29.555-20.301 39.789-11.539 10.23-26.512 15.73-41.93 15.398z"/>
</svg>
