<svg width="18" height="18" viewBox="0 0 18 18" fill="none" xmlns="http://www.w3.org/2000/svg">
<g clip-path="url(#clip0_419_506)">
<path d="M4.56433 17.9363C3.49386 17.8877 2.91235 17.7095 2.52557 17.5587C2.01308 17.3591 1.6477 17.1216 1.26305 16.7375C0.878414 16.3534 0.640354 15.988 0.441882 15.4755C0.291021 15.0887 0.112878 14.5072 0.0641959 13.4367C0.0106993 12.2796 0 11.9324 0 9.0008C0 6.06919 0.0117693 5.72253 0.0636609 4.56433C0.112343 3.49386 0.291556 2.91342 0.441347 2.52557C0.640889 2.01308 0.878949 1.6477 1.26252 1.26252C1.64663 0.878414 2.01201 0.639819 2.52504 0.441347C2.91182 0.290487 3.49333 0.112343 4.56379 0.0636609C5.72146 0.0106993 6.06919 0 8.99973 0C11.9313 0 12.278 0.0117693 13.4362 0.0636609C14.5067 0.112343 15.0871 0.291556 15.475 0.441347C15.9875 0.639819 16.3528 0.878414 16.7375 1.26252C17.1221 1.64663 17.3591 2.01254 17.5587 2.52504C17.7095 2.91182 17.8877 3.49333 17.9363 4.56379C17.9893 5.722 18 6.06865 18 9.00027C18 11.9308 17.9893 12.2785 17.9363 13.4367C17.8877 14.5072 17.7084 15.0887 17.5587 15.4755C17.3591 15.988 17.1216 16.3534 16.7375 16.7375C16.3534 17.1216 15.9875 17.3591 15.475 17.5587C15.0882 17.7095 14.5067 17.8877 13.4362 17.9363C12.2791 17.9893 11.9313 18 8.99973 18C6.06919 18 5.72146 17.9898 4.56433 17.9363Z" fill="url(#paint0_radial_419_506)"/>
<path d="M4.56433 17.9363C3.49386 17.8877 2.91235 17.7095 2.52557 17.5587C2.01308 17.3591 1.6477 17.1216 1.26305 16.7375C0.878414 16.3534 0.640354 15.988 0.441882 15.4755C0.291021 15.0887 0.112878 14.5072 0.0641959 13.4367C0.0106993 12.2796 0 11.9324 0 9.0008C0 6.06919 0.0117693 5.72253 0.0636609 4.56433C0.112343 3.49386 0.291556 2.91342 0.441347 2.52557C0.640889 2.01308 0.878949 1.6477 1.26252 1.26252C1.64663 0.878414 2.01201 0.639819 2.52504 0.441347C2.91182 0.290487 3.49333 0.112343 4.56379 0.0636609C5.72146 0.0106993 6.06919 0 8.99973 0C11.9313 0 12.278 0.0117693 13.4362 0.0636609C14.5067 0.112343 15.0871 0.291556 15.475 0.441347C15.9875 0.639819 16.3528 0.878414 16.7375 1.26252C17.1221 1.64663 17.3591 2.01254 17.5587 2.52504C17.7095 2.91182 17.8877 3.49333 17.9363 4.56379C17.9893 5.722 18 6.06865 18 9.00027C18 11.9308 17.9893 12.2785 17.9363 13.4367C17.8877 14.5072 17.7084 15.0887 17.5587 15.4755C17.3591 15.988 17.1216 16.3534 16.7375 16.7375C16.3534 17.1216 15.9875 17.3591 15.475 17.5587C15.0882 17.7095 14.5067 17.8877 13.4362 17.9363C12.2791 17.9893 11.9313 18 8.99973 18C6.06919 18 5.72146 17.9898 4.56433 17.9363Z" fill="url(#paint1_radial_419_506)"/>
<path d="M6.79043 9.03866C6.79043 7.80764 7.78808 6.80945 9.01909 6.80945C10.2501 6.80945 11.2483 7.80764 11.2483 9.03866C11.2483 10.2697 10.2501 11.2679 9.01909 11.2679C7.78808 11.2679 6.79043 10.2697 6.79043 9.03866ZM5.58536 9.03866C5.58536 10.9351 7.12264 12.4724 9.01909 12.4724C10.9155 12.4724 12.4528 10.9351 12.4528 9.03866C12.4528 7.1422 10.9155 5.60491 9.01909 5.60491C7.12264 5.60491 5.58542 7.14209 5.58542 9.03866H5.58536ZM11.7864 5.46877C11.7863 5.62748 11.8333 5.78264 11.9214 5.91464C12.0095 6.04663 12.1348 6.14954 12.2814 6.21033C12.428 6.27113 12.5894 6.28708 12.745 6.25618C12.9007 6.22528 13.0437 6.14891 13.156 6.03673C13.2683 5.92455 13.3447 5.7816 13.3758 5.62595C13.4068 5.4703 13.391 5.30895 13.3303 5.1623C13.2696 5.01564 13.1668 4.89028 13.0349 4.80205C12.903 4.71382 12.7478 4.6667 12.5891 4.66663H12.5888C12.3761 4.66673 12.1721 4.75127 12.0216 4.90166C11.8711 5.05206 11.7865 5.25603 11.7864 5.46877ZM6.31752 14.4818C5.66556 14.4522 5.31119 14.3436 5.0757 14.2518C4.7635 14.1303 4.54074 13.9855 4.30653 13.7516C4.07232 13.5177 3.92735 13.2952 3.80634 12.983C3.71454 12.7476 3.60594 12.3931 3.57631 11.7412C3.54389 11.0363 3.53741 10.8245 3.53741 9.03876C3.53741 7.25299 3.54442 7.04184 3.57631 6.33637C3.606 5.68441 3.7154 5.33064 3.80634 5.09455C3.92788 4.78235 4.07265 4.55959 4.30653 4.32538C4.54042 4.09117 4.76296 3.94619 5.0757 3.82518C5.31109 3.73338 5.66556 3.62479 6.31752 3.59515C7.02239 3.56273 7.23412 3.55626 9.01909 3.55626C10.804 3.55626 11.016 3.56316 11.7215 3.59526C12.3734 3.62495 12.7272 3.73435 12.9633 3.82529C13.2755 3.9463 13.4982 4.0916 13.7324 4.32549C13.9667 4.55937 14.1111 4.78245 14.2326 5.09466C14.3244 5.33005 14.433 5.68452 14.4627 6.33648C14.4951 7.04194 14.5016 7.2531 14.5016 9.03887C14.5016 10.8246 14.4951 11.0358 14.4627 11.7413C14.433 12.3932 14.3238 12.7476 14.2326 12.9831C14.1111 13.2953 13.9663 13.518 13.7324 13.7517C13.4986 13.9854 13.2755 14.1304 12.9633 14.2519C12.7279 14.3437 12.3734 14.4523 11.7215 14.482C11.0166 14.5144 10.8049 14.5208 9.01909 14.5208C7.23332 14.5208 7.02217 14.5144 6.31752 14.482V14.4818ZM6.26215 2.39206C5.55027 2.42448 5.06383 2.53736 4.63901 2.70266C4.19932 2.87337 3.82661 3.10239 3.45444 3.47398C3.08227 3.84557 2.85384 4.21833 2.68313 4.65856C2.51782 5.08364 2.40495 5.56982 2.37253 6.2817C2.33957 6.99471 2.33203 7.22266 2.33203 9.03866C2.33203 10.8547 2.33957 11.0826 2.37253 11.7956C2.40495 12.5075 2.51782 12.9937 2.68313 13.4188C2.85384 13.8584 3.08232 14.2319 3.45444 14.6033C3.82656 14.9748 4.19879 15.2035 4.63901 15.3747C5.06463 15.54 5.55027 15.6528 6.26215 15.6853C6.97552 15.7177 7.2031 15.7258 9.01909 15.7258C10.8351 15.7258 11.063 15.7182 11.776 15.6853C12.488 15.6528 12.9741 15.54 13.3992 15.3747C13.8388 15.2035 14.2116 14.9749 14.5837 14.6033C14.9559 14.2317 15.1839 13.8584 15.355 13.4188C15.5203 12.9937 15.6338 12.5075 15.6656 11.7956C15.6981 11.0821 15.7056 10.8547 15.7056 9.03866C15.7056 7.22266 15.6981 6.99471 15.6656 6.2817C15.6332 5.56977 15.5203 5.08337 15.355 4.65856C15.1839 4.21887 14.9553 3.84615 14.5837 3.47398C14.2121 3.1018 13.8388 2.87337 13.3997 2.70266C12.9741 2.53736 12.4879 2.42394 11.7766 2.39206C11.0635 2.35948 10.8356 2.35156 9.01989 2.35156C7.20417 2.35156 6.97579 2.35911 6.26242 2.39206" fill="white"/>
</g>
<defs>
<radialGradient id="paint0_radial_419_506" cx="0" cy="0" r="1" gradientUnits="userSpaceOnUse" gradientTransform="translate(1.16494 17.6057) scale(22.8533)">
<stop offset="0.09" stop-color="#FA8F21"/>
<stop offset="0.78" stop-color="#D82D7E"/>
</radialGradient>
<radialGradient id="paint1_radial_419_506" cx="0" cy="0" r="1" gradientUnits="userSpaceOnUse" gradientTransform="translate(12.468 17.0277) scale(20.1111)">
<stop offset="0.64" stop-color="#8C3AAA" stop-opacity="0"/>
<stop offset="1" stop-color="#8C3AAA"/>
</radialGradient>
<clipPath id="clip0_419_506">
<rect width="18" height="18" fill="white"/>
</clipPath>
</defs>
</svg>
