<?xml version="1.0" encoding="UTF-8"?>
<svg width="700pt" fill="currentColor" height="700pt" version="1.1" viewBox="0 0 700 700" xmlns="http://www.w3.org/2000/svg" xmlns:xlink="http://www.w3.org/1999/xlink">
 <g>
  <path d="m197.9 290.36c51.969 29.457 101.75 57.398 145.6 81.648h0.44922c3.7773 2.168 8.4258 2.168 12.207 0 58.742-35.336 106.85-65.969 140-87.527 2.9102-1.9609 2.0703-5.207-1.9023-7.2227-3.4648-1.8164-7.5352-2.082-11.203-0.73047-31.695 16.016-73.359 37.574-121.3 63.672 5.6016-37.855 4.9844-101.36-1.3438-134.4 47.379-27.441 93.633-56.281 122.3-77 1.3438 59.137 3.4727 104.66 5.6016 139.27v-0.003907c0.71094 4.168 3.3164 7.7695 7.0547 9.7461 3.2461 1.6797 5.6016 0.61719 6.0469-2.4648 2.1289-37.574 4.5352-91.223 5.6016-164.86 0.10547-4.2344-2.0195-8.2109-5.5977-10.473h-0.39062c-42.113-25.609-90.016-54.207-143.7-85.793-4.4727-2.5664-9.9766-2.5664-14.449 0-46.535 26.32-95.535 54.32-145.04 82.879v0.003907c-4.7422 2.7617-7.6641 7.8359-7.6719 13.328 0 56.391 0 113.18 0.61719 167.05-0.058594 2.582 0.56641 5.1367 1.8164 7.3984 1.25 2.2656 3.0781 4.1562 5.293 5.4805zm87.078-208.32c23.52 21.336 77.727 53.426 113.01 67.199-15.566 8.457-31.754 17.473-47.992 26.77-44.066-24.809-88.141-48.383-119.16-62.496zm54.711 123.82c-6.4922 32.762-6.4922 95.426-1.4531 133.39-36.344-21.84-76.328-45.586-118.05-70.113 0.33594-44.801 0.50391-91.391 0.50391-138.04 28.785 20.555 73.305 48.105 119 74.707zm10.309-162.01c44.5 25.164 85.156 47.879 121.97 68.152-14.672 6.6094-32.535 15.457-52.137 25.762-22.68-21.227-77.449-53.762-113.23-68.379z"/>
  <path d="m569.63 188.66c-8.3594 2.5781-15.711 7.6914-21.027 14.637-5.3203 6.9453-8.3438 15.375-8.6523 24.113v4.9297 12.488l0.55859 16.07 1.3438 29.793c0.44922 8.7734 0.93359 16.988 1.457 24.641-6.5898-3.293-13.93-4.7812-21.281-4.3125-8.0625 0.45312-15.832 3.1914-22.398 7.8984-1.6602 1.1719-3.2344 2.4609-4.7031 3.8633-1.457 1.2891-2.0156 1.9609-3.0781 2.9688l-5.6016 5.6016-22.902 22.68c-15.23 15.23-30.352 30.574-44.801 45.586l-21.281 22.398-5.1523 5.6016v-0.003906c-1.9805 2.125-3.8477 4.3477-5.6016 6.6641-3.5664 4.625-6.5898 9.6406-9.0156 14.949-4.5234 9.9844-6.7812 20.848-6.6094 31.809 0.33594 9.2383 0.83984 16.801 1.2891 24.922 0.95312 15.457 2.0703 28.895 3.4141 39.648 0 1.5117 3.9219 2.6875 8.2305 2.5742 4.3125-0.11328 7-1.2305 7.168-2.5742 1.2891-10.754 2.4062-24.191 3.4141-39.648l1.3438-24.359h0.007812c0.86328-11.012 5.2422-21.457 12.484-29.793 1.2891-1.457 2.4648-2.6875 4.0898-4.1992l5.6016-5.1523 22.398-21.281c15.008-14.559 30.352-29.68 45.586-44.801l22.176-23.574 5.6016-5.6016c0.83984-0.83984 2.0703-2.1289 2.5742-2.6328 0.43359-0.44531 0.90234-0.85547 1.3984-1.2305 1.9531-1.5273 4.3047-2.4609 6.7773-2.6875 5.0977-0.51953 10.078 1.7734 12.992 5.9922 1.7227 2.5859 2.6094 5.6406 2.5273 8.75-0.078126 3.1094-1.1211 6.1172-2.9766 8.6094l-0.55859 0.72656-1.0625 1.1758-2.2969 2.5195-9.0156 9.8008-16.465 18.367c-10.246 11.648-18.93 21.953-25.594 30.465-0.95313 1.1758 0.83984 4.5938 3.9219 7.5039 3.0781 2.9102 5.6016 3.9219 6.6641 3.1367 8.6211-6.4961 18.812-15.23 30.461-25.48l18.367-16.465 9.8008-9.0156 2.5195-2.2969 1.3438-1.2891 1.7344-1.793 0.003906 0.003906c2.3438-2.5352 4.3555-5.3594 5.9922-8.3984 6.9414-13.07 6.5156-28.824-1.1211-41.496l-0.39063-0.55859c0.95313-11.594 1.8477-25.09 2.6328-40.266l1.3438-29.793 1.1211-32.145h-0.003907c0.30469-3.0664 1.5391-5.9688 3.543-8.3125 2-2.3438 4.6758-4.0156 7.6602-4.7891 2.9922-0.75391 6.1523-0.52344 9.0039 0.65625 2.8555 1.1797 5.2539 3.2461 6.8438 5.8945 0.73047 1.3203 1.2773 2.7305 1.6211 4.1992 0.20312 2.0664 0.20312 4.1484 0 6.2148v58.52 78.398 18.762c0.046874 5.043-0.55469 10.066-1.7891 14.953-2.5508 9.4766-7.375 18.184-14.059 25.367-32.48 33.824-60.871 64.234-80.305 87.082l-0.72656 0.83984c-1.3398 1.5508-2.043 3.5508-1.9609 5.6016 0.44922 11.199 0.89453 16.801 1.3984 22.398 0 1.9609 3.9219 3.4727 8.2305 3.3594 4.3125-0.11328 7-1.5664 7.168-3.3594 0.44922-4.5352 0.83984-9.4648 1.2305-18.031 22.398-19.434 51.855-46.648 84.953-78.398l0.003907-0.003906c15.91-15.637 25.211-36.785 25.984-59.078v-19.488c0-25.703 0.33594-52.023 0-78.398v-58.523c0.0625-4.3047-0.34766-8.6055-1.2305-12.824-1.1484-4.6914-3.0391-9.1719-5.6016-13.27-5.2227-7.9922-12.941-14.035-21.953-17.191-8.625-3.0703-18.008-3.2852-26.766-0.61719z"/>
  <path d="m74.871 388.98c0.77344 22.266 10.055 43.391 25.93 59.023 33.098 31.695 62.551 58.91 84.953 78.398 0.39062 8.5664 0.78516 13.496 1.2305 18.031 0 1.9609 3.9219 3.4727 8.2305 3.3594 4.3125-0.11328 7-1.5664 7.168-3.3594 0.50391-5.207 0.95313-11.199 1.3984-22.398h0.003906c0.074219-2.0469-0.625-4.0469-1.9609-5.5977l-0.72656-0.83984c-19.434-22.398-47.824-53.312-80.305-87.246v-0.003906c-6.6484-7.1211-11.473-15.75-14.059-25.145-1.3008-4.8398-1.9766-9.8281-2.0156-14.84v-18.762c0-25.703 0.33594-52.023 0-78.398v-58.52c-0.20312-2.0664-0.20312-4.1484 0-6.2148 0.34766-1.4688 0.89453-2.8828 1.625-4.1992 1.5898-2.6484 3.9883-4.7148 6.8438-5.8945 2.8516-1.1797 6.0078-1.4102 9.0039-0.66016 2.9844 0.77734 5.6562 2.4492 7.6602 4.793 2.0039 2.3438 3.2383 5.2461 3.5391 8.3125l1.1211 32.145 1.3438 29.793c0.78516 15.176 1.625 28.672 2.6328 40.266l-0.39062 0.55859v-0.003906c-7.5273 12.688-7.8672 28.387-0.89844 41.387 1.6211 3.0195 3.6172 5.8203 5.9375 8.3438l1.7344 1.793 1.3438 1.2891 2.5195 2.2969 9.8008 9.0156 18.367 16.465c11.707 10.301 21.898 19.035 30.523 25.645 1.1758 0.95312 4.5938-0.83984 7.5039-3.9219 2.9102-3.0781 3.9219-5.6016 3.0781-6.6641-6.6641-8.5117-15.344-18.816-25.594-30.465l-16.465-18.367-9.0156-9.8008-2.2969-2.5195-1.0625-1.1758-0.55859-0.72656c-1.8945-2.5078-2.957-5.5469-3.0352-8.6914-0.082031-3.1445 0.82422-6.2344 2.5859-8.8359 2.9141-4.2188 7.8945-6.5117 12.992-5.9922 2.4727 0.22656 4.8242 1.1602 6.7773 2.6875 0.49609 0.375 0.96484 0.78516 1.3984 1.2305 0.50391 0.44922 1.7344 1.7344 2.5742 2.6328l5.6016 5.6016 22.68 22.902c15.23 15.23 30.574 30.352 45.586 44.801l22.398 21.281 5.6016 5.1523c1.625 1.5664 2.8008 2.7422 4.0898 4.1992 7.2422 8.3359 11.621 18.781 12.488 29.793l1.3438 24.359c0.95312 15.457 2.0703 28.895 3.4141 39.648 0 1.5117 3.9219 2.6875 8.2305 2.5742 4.3125-0.11328 7-1.2305 7.168-2.5742 1.2891-10.754 2.4062-24.191 3.4141-39.648 0.44922-7.8398 0.95312-15.68 1.2891-24.922h0.003907c0.17187-10.961-2.082-21.824-6.6094-31.809-2.4258-5.3086-5.4492-10.328-9.0156-14.949-1.7539-2.3164-3.6211-4.5391-5.6016-6.6641l-5.1523-5.6016-21.281-22.398c-14.559-15.008-29.68-30.352-44.801-45.586l-22.902-22.68-5.6016-5.6016c-1.0625-1.0078-1.6797-1.6797-3.0781-2.9688v0.003906c-1.4688-1.4023-3.043-2.6953-4.7031-3.8672-6.5664-4.7031-14.336-7.4414-22.398-7.8945-7.3516-0.46875-14.691 1.0195-21.281 4.3125 0.52344-7.4648 1.0078-15.68 1.457-24.641l1.3438-29.793 0.55859-16.07v-12.488-4.9297c-0.30859-8.7383-3.332-17.168-8.6523-24.113-5.3164-6.9453-12.668-12.059-21.027-14.637-8.9844-2.5664-18.566-2.1133-27.27 1.2891-8.9453 3.2266-16.582 9.3086-21.73 17.305-2.5625 4.0938-4.4531 8.5742-5.5977 13.27-0.88281 4.2148-1.2969 8.5156-1.2344 12.824l-0.44531 19.32v39.199 78.398z"/>
 </g>
</svg>
